<?xml version="1.0" encoding="UTF-8" standalone="no"?>
<!-- Created with Inkscape (http://www.inkscape.org/) -->

<svg
   xmlns:dc="http://purl.org/dc/elements/1.1/"
   xmlns:cc="http://creativecommons.org/ns#"
   xmlns:rdf="http://www.w3.org/1999/02/22-rdf-syntax-ns#"
   xmlns:svg="http://www.w3.org/2000/svg"
   xmlns="http://www.w3.org/2000/svg"
   xmlns:sodipodi="http://sodipodi.sourceforge.net/DTD/sodipodi-0.dtd"
   xmlns:inkscape="http://www.inkscape.org/namespaces/inkscape"
   width="210mm"
   height="297mm"
   viewBox="0 0 210 297"
   version="1.1"
   id="svg8"
   inkscape:export-filename="/home/giamar/Documenti/web/CryptPass/CryptPassApp/www/img/cp.png"
   inkscape:export-xdpi="199.13969"
   inkscape:export-ydpi="199.13969"
   inkscape:version="0.92.5 (2060ec1f9f, 2020-04-08)"
   sodipodi:docname="logo.svg">
  <defs
     id="defs2" />
  <sodipodi:namedview
     id="base"
     pagecolor="#ffffff"
     bordercolor="#666666"
     borderopacity="1.0"
     inkscape:pageopacity="0.0"
     inkscape:pageshadow="2"
     inkscape:zoom="2.8"
     inkscape:cx="135.97698"
     inkscape:cy="430.88315"
     inkscape:document-units="mm"
     inkscape:current-layer="layer1"
     showgrid="false"
     inkscape:window-width="1920"
     inkscape:window-height="1031"
     inkscape:window-x="0"
     inkscape:window-y="25"
     inkscape:window-maximized="1" />
  <metadata
     id="metadata5">
    <rdf:RDF>
      <cc:Work
         rdf:about="">
        <dc:format>image/svg+xml</dc:format>
        <dc:type
           rdf:resource="http://purl.org/dc/dcmitype/StillImage" />
        <dc:title></dc:title>
      </cc:Work>
    </rdf:RDF>
  </metadata>
  <g
     inkscape:label="Livello 1"
     inkscape:groupmode="layer"
     id="layer1">
    <text
       xml:space="preserve"
       style="font-style:normal;font-weight:normal;font-size:10.58333302px;line-height:125%;font-family:sans-serif;letter-spacing:0px;word-spacing:0px;fill:#000000;fill-opacity:1;stroke:none;stroke-width:0.26458332px;stroke-linecap:butt;stroke-linejoin:miter;stroke-opacity:1"
       x="53.294643"
       y="172.07887"
       id="text16"><tspan
         sodipodi:role="line"
         id="tspan14"
         x="53.294643"
         y="181.44264"
         style="stroke-width:0.26458332px" /></text>
    <path
       style="opacity:1;vector-effect:none;fill:#ff0000;fill-opacity:1;fill-rule:nonzero;stroke:none;stroke-width:0.29516792;stroke-linecap:butt;stroke-linejoin:miter;stroke-miterlimit:4;stroke-dasharray:none;stroke-dashoffset:0;stroke-opacity:1"
       id="path48"
       d="m 41.351252,179.27301 c -0.01579,0.36221 -0.01317,0.72467 -0.0121,1.08701 -0.0015,0.41057 0.0054,0.82121 -0.009,1.23168 -0.02468,0.43522 -0.03862,0.87061 -0.04639,1.30611 -0.0038,0.29246 -0.0032,0.58494 -0.0015,0.87741 0.0015,0.19478 0.0026,0.38956 0.0028,0.58435 0.0015,0.1644 0.0015,0.32882 2.31e-4,0.49323 -0.0017,0.22553 -0.0032,0.45106 -0.0028,0.67659 7.11e-4,0.18022 0.0028,0.36043 0.0047,0.54064 2.07e-4,0.0204 3.56e-4,0.0407 7.11e-4,0.0612 0,0 -0.837783,0.29405 -0.837783,0.29405 v 0 c 2.1e-4,-0.0205 3.55e-4,-0.0411 7.11e-4,-0.0617 0.0017,-0.18131 0.0039,-0.36261 0.0047,-0.54392 3.24e-4,-0.22485 -0.0011,-0.4497 -0.0028,-0.67454 -0.0011,-0.16443 -0.0011,-0.32886 -4.3e-5,-0.49328 2.24e-4,-0.19545 7.11e-4,-0.3909 0.0026,-0.58634 0.0026,-0.29426 0.0051,-0.58854 0.0137,-0.88276 0.0121,-0.43619 0.03194,-0.87226 0.05114,-1.30833 0.01387,-0.4096 0.0026,-0.81931 0.0062,-1.229 0.0011,-0.35949 0.0039,-0.71912 -0.0121,-1.07849 0,0 0.837531,-0.29397 0.837531,-0.29397 z"
       inkscape:connector-curvature="0"
       inkscape:export-xdpi="215.06"
       inkscape:export-ydpi="215.06" />
    <path
       style="opacity:1;vector-effect:none;fill:#ff0000;fill-opacity:1;fill-rule:nonzero;stroke:none;stroke-width:0.29516792;stroke-linecap:butt;stroke-linejoin:miter;stroke-miterlimit:4;stroke-dasharray:none;stroke-dashoffset:0;stroke-opacity:1"
       id="path50"
       d="m 41.376118,179.32513 c 0.493998,-0.0689 0.986162,-0.14356 1.482554,-0.20395 0.79808,-0.0866 1.603022,-0.1373 2.404665,-0.20557 0.503655,-0.0468 1.010651,-0.0709 1.515976,-0.10665 0.283743,-0.0248 0.569354,-0.0443 0.852312,-0.0735 0.275234,-0.0304 0.553915,-0.0389 0.832082,-0.0446 0.262043,-0.005 0.524171,-0.005 0.786266,-0.005 0.165755,-5e-4 0.331513,-7.5e-4 0.497268,-7.5e-4 0.140375,-0.004 0.279828,-0.0231 0.419657,-0.035 0.116684,-0.008 0.234174,-0.008 0.351377,-0.009 0.140437,0.005 0.283036,-0.009 0.421713,0.008 0.134811,0.0128 0.261331,0.0455 0.391432,0.071 0.160954,0.048 0.411701,0.051 0.54175,0.13219 0.03399,0.0212 0.05776,0.0492 0.08664,0.0737 0.18875,0.22828 0.168069,0.49735 0.15994,0.75114 -0.04856,0.56475 -0.219794,1.12164 -0.369751,1.67694 -0.154168,0.57644 -0.267192,1.15728 -0.373794,1.7386 -0.05788,0.32613 -0.11659,0.65221 -0.179222,0.97793 -0.03468,0.22407 -0.07624,0.44768 -0.103794,0.67225 -0.01398,0.18121 -0.04921,0.36113 -0.071,0.54189 -0.01351,0.12337 -0.01651,0.24708 -0.01743,0.37075 0.0028,0.39582 -0.08279,0.24137 -0.876582,0.57209 -0.229869,0.011 -0.462166,-0.0156 -0.690458,-0.034 -0.358346,-0.028 -0.719013,-0.0352 -1.079257,-0.0406 -0.386814,-0.0112 -0.772428,0.003 -1.158428,0.0179 -0.366268,0.006 -0.730254,0.0336 -1.095519,0.0502 -0.337157,0.0142 -0.675114,0.0156 -1.012785,0.017 -0.328069,4.9e-4 -0.65614,7.3e-4 -0.984206,9.2e-4 -0.267153,-0.003 -0.532915,-0.002 -0.799005,0.0149 -0.253799,0.014 -0.507328,0.0223 -0.760397,0.0416 -0.240943,0.0174 -0.482719,0.0256 -0.724781,0.0301 -0.173408,0.007 -0.348921,-0.006 -0.521038,0.0107 -0.136446,0.0177 -0.274429,0.0267 -0.412747,0.0334 -0.111119,-0.004 -0.215006,0.0115 -0.322276,0.0286 -0.0909,0.0115 -0.171163,0.0455 -0.253112,0.0731 0,0 0.739141,-0.40705 0.739141,-0.40705 v 0 c 0.08391,-0.029 0.174517,-0.0489 0.267054,-0.0597 0.109116,-0.0143 0.218334,-0.0184 0.329221,-0.0213 0.137048,-0.007 0.27268,-0.022 0.40914,-0.0332 0.173721,-0.006 0.347786,-0.002 0.521614,-0.006 0.239937,-0.005 0.479663,-0.0147 0.718301,-0.0331 0.253443,-0.018 0.507962,-0.0242 0.761671,-0.0403 0.266839,-0.0137 0.533901,-0.0105 0.801338,-0.01 0.327174,4.9e-4 0.654354,0.002 0.981524,-2.2e-4 0.336591,-0.002 0.67336,-0.005 1.009321,-0.0202 0.364438,-0.0178 0.728298,-0.0409 1.09367,-0.0482 0.387255,-0.0147 0.774386,-0.0241 1.162283,-0.0138 0.363334,0.005 0.726719,0.0158 1.088127,0.0433 0.198603,0.0144 0.48053,0.0536 0.666345,-0.005 -0.251932,0.10558 -0.504055,0.21094 -0.755799,0.31674 -0.01116,0.005 0.02636,-0.006 0.03403,-0.0134 0.04235,-0.0403 0.01621,-0.12618 0.02436,-0.17164 0.0017,-0.12549 0.0039,-0.25109 0.01802,-0.37626 0.02088,-0.18174 0.06412,-0.36186 0.07676,-0.54402 0.02677,-0.22613 0.06942,-0.45103 0.105017,-0.67653 0.06811,-0.32807 0.134171,-0.65634 0.200161,-0.98461 0.115878,-0.584 0.236078,-1.16753 0.389951,-1.74752 0.143452,-0.54791 0.307503,-1.10039 0.346096,-1.65731 0.0028,-0.23637 0.02727,-0.49099 -0.143619,-0.70509 -0.02351,-0.0181 -0.04272,-0.0394 -0.07057,-0.0544 -0.119735,-0.0643 -0.386277,-0.0749 -0.531205,-0.11788 -0.127276,-0.0252 -0.254891,-0.0496 -0.386647,-0.0611 -0.137942,-0.006 -0.276388,-9.3e-4 -0.414484,-9.3e-4 -0.115179,0.002 -0.230471,0.004 -0.344785,0.0147 -0.141579,0.0119 -0.282737,0.0317 -0.426005,0.0282 -0.164093,-4.9e-4 -0.328188,-9.3e-4 -0.492281,-0.002 -0.260257,-4.9e-4 -0.520572,-4.9e-4 -0.780732,0.005 -0.277022,0.007 -0.553795,0.0203 -0.827794,0.0507 -0.282596,0.0248 -0.565314,0.0502 -0.84893,0.0685 -0.497537,0.0319 -0.996674,0.052 -1.492461,0.0964 -0.802203,0.0658 -1.607994,0.11536 -2.404495,0.21011 -0.506457,0.0657 -1.009854,0.14227 -1.511908,0.22232 0,0 0.750529,-0.39318 0.750529,-0.39318 z"
       inkscape:connector-curvature="0"
       inkscape:export-xdpi="215.06"
       inkscape:export-ydpi="215.06" />
    <path
       style="opacity:1;vector-effect:none;fill:#ff0000;fill-opacity:1;fill-rule:nonzero;stroke:none;stroke-width:0.26725289;stroke-linecap:butt;stroke-linejoin:miter;stroke-miterlimit:4;stroke-dasharray:none;stroke-dashoffset:0;stroke-opacity:1"
       id="path52"
       d="m 42.052817,179.33875 c 0.101913,-0.16926 0.155191,-0.34533 0.208883,-0.5209 0.04671,-0.17474 0.09456,-0.34951 0.127518,-0.52527 0.03794,-0.16055 0.05949,-0.32206 0.09881,-0.4825 0.03144,-0.11234 0.04574,-0.22571 0.05386,-0.33924 0.0039,-0.1013 7.11e-4,-0.20221 0.02009,-0.30304 0.02194,-0.0833 0.02906,-0.16734 0.0471,-0.25078 0.04609,-0.13249 0.113579,-0.26185 0.204299,-0.38666 0.139263,-0.18258 0.35557,-0.33977 0.579148,-0.49136 0.350012,-0.23268 0.748722,-0.43852 1.162891,-0.63378 0.557379,-0.2551 1.156542,-0.48714 1.824272,-0.64211 0.259628,-0.0512 0.533684,-0.0752 0.806641,-0.0903 0.280877,-0.0109 0.563216,-0.0153 0.844302,-0.006 0.397355,0.036 0.779847,0.11097 1.160469,0.18281 0.330826,0.0665 0.665483,0.1268 0.988776,0.20457 0.215053,0.0519 0.361983,0.15227 0.501557,0.25399 0.138967,0.1027 0.227037,0.22165 0.317947,0.33906 0.05942,0.0839 0.119588,0.16791 0.159776,0.25548 0.03336,0.0743 0.03539,0.15048 0.0364,0.22658 0.0017,0.16416 -0.05758,0.32683 -0.120112,0.48642 -0.110044,0.26654 -0.187233,0.53674 -0.266846,0.80653 -0.07037,0.24588 -0.12448,0.49304 -0.181887,0.73995 -0.03368,0.14427 -0.05479,0.28934 -0.0639,0.43475 -0.0028,0.0577 -0.0035,0.1153 -0.0026,0.17298 0,0 -0.841009,0.24187 -0.841009,0.24187 v 0 c 0.0011,-0.0586 0.0015,-0.11724 0.0052,-0.17583 0.01022,-0.14817 0.0352,-0.2957 0.07141,-0.4426 0.0612,-0.24781 0.119655,-0.49579 0.186464,-0.74314 0.08234,-0.26963 0.157627,-0.54001 0.260189,-0.80754 0.05999,-0.15456 0.115394,-0.31284 0.115232,-0.47154 -0.0022,-0.0719 -0.0028,-0.14442 -0.02835,-0.21528 -0.03492,-0.0855 -0.09387,-0.16686 -0.148261,-0.24887 -0.08636,-0.11362 -0.168414,-0.22913 -0.303182,-0.32813 -0.133325,-0.0943 -0.273146,-0.18511 -0.476245,-0.23176 -0.31838,-0.0772 -0.64593,-0.14061 -0.97289,-0.20516 -0.377507,-0.0689 -0.757424,-0.14419 -1.153954,-0.16799 -0.279601,-0.005 -0.55994,-0.002 -0.838584,0.0134 -0.267138,0.018 -0.535618,0.0437 -0.786046,0.10132 -0.373477,0.0967 -0.174923,0.0486 0.49185,-0.17395 0.05514,-0.0185 -0.112611,0.0345 -0.166327,0.0543 -0.200215,0.0734 -0.380348,0.16353 -0.572903,0.24283 -0.412902,0.19156 -0.812608,0.39231 -1.159405,0.6229 -0.221735,0.14693 -0.43804,0.29881 -0.582193,0.47535 -0.09584,0.11921 -0.156828,0.24402 -0.206716,0.37169 -0.02397,0.0828 -0.02358,0.16738 -0.04957,0.25016 -0.02297,0.0995 -0.02379,0.19885 -0.02411,0.29922 -0.0062,0.11563 -0.02094,0.23113 -0.0528,0.34551 -0.04419,0.15984 -0.06795,0.32088 -0.104372,0.48133 -0.02991,0.17729 -0.08233,0.35295 -0.126658,0.5292 -0.05399,0.17616 -0.108095,0.35207 -0.190944,0.52486 0,0 -0.853218,0.22629 -0.853218,0.22629 z"
       inkscape:connector-curvature="0"
       inkscape:export-xdpi="215.06"
       inkscape:export-ydpi="215.06" />
    <path
       style="opacity:1;vector-effect:none;fill:#ff0000;fill-opacity:1;fill-rule:nonzero;stroke:none;stroke-width:0.25425979;stroke-linecap:butt;stroke-linejoin:miter;stroke-miterlimit:4;stroke-dasharray:none;stroke-dashoffset:0;stroke-opacity:1"
       id="path54"
       d="m 43.128398,179.21551 c 0.11491,-0.17758 0.219073,-0.3571 0.315017,-0.53805 0.10577,-0.18911 0.201135,-0.37986 0.290813,-0.57147 0.07026,-0.14173 0.127625,-0.28531 0.183764,-0.42893 0.02211,-0.0801 0.05604,-0.15894 0.0834,-0.23852 0.02014,-0.0925 0.04709,-0.18442 0.06532,-0.27703 0.01049,-0.0961 0.04449,-0.19062 0.06588,-0.28601 0.0082,-0.0816 0.04768,-0.16 0.0866,-0.23829 0.03509,-0.0669 0.07723,-0.13237 0.123257,-0.19717 0.04383,-0.0597 0.08449,-0.12004 0.123203,-0.18079 0.06335,-0.095 0.227392,-0.15318 0.371943,-0.20816 0.41779,-0.13426 0.823312,-0.28655 1.271454,-0.38923 0.09968,-0.0229 0.202581,-0.0411 0.303837,-0.0618 0.341005,-0.0683 0.69538,-0.11139 1.048386,-0.1556 0.203504,-0.0269 0.40976,-0.0456 0.618551,-0.0532 0.170612,-0.003 0.341358,-0.003 0.512029,-0.002 0.190981,0.006 0.286638,0.0886 0.387809,0.16708 0.141129,0.1077 0.227906,0.23083 0.307102,0.35517 0.07279,0.12347 0.134559,0.24826 0.16911,0.37676 0.0316,0.0922 0.05762,0.18504 0.09237,0.27693 0.03669,0.0835 0.03924,0.16967 0.05921,0.25442 0.03122,0.0949 0.04449,0.191 0.05118,0.2873 0.0075,0.12175 0.0066,0.24358 0.0066,0.36538 0.0071,0.1383 -0.01363,0.27617 -0.04299,0.41339 -0.02866,0.14446 -0.09195,0.28568 -0.141016,0.4282 -0.03562,0.11016 -0.09608,0.21707 -0.140109,0.32615 -0.01448,0.061 -0.05137,0.11914 -0.07808,0.17857 -0.0069,0.0203 -0.01516,0.0396 -0.02824,0.059 0,0 -0.827624,0.21143 -0.827624,0.21143 v 0 c 0.01383,-0.0183 0.03487,-0.0318 0.03403,-0.0527 0.02534,-0.0602 0.06867,-0.11773 0.08459,-0.17907 0.04187,-0.10977 0.105958,-0.21633 0.146792,-0.32627 0.04641,-0.14211 0.113969,-0.2821 0.144086,-0.42578 0.03218,-0.13493 0.05182,-0.27113 0.04602,-0.4073 -3.41e-4,-0.12102 -3.41e-4,-0.24208 -0.0069,-0.36307 -0.0074,-0.0943 -0.0176,-0.18876 -0.05045,-0.28164 -0.02428,-0.0835 -0.01924,-0.16925 -0.05565,-0.252 -0.03532,-0.0932 -0.06132,-0.18708 -0.09222,-0.28077 -0.02985,-0.12588 -0.0866,-0.24812 -0.158123,-0.36879 -0.07645,-0.11984 -0.157966,-0.23904 -0.297454,-0.34178 -0.09847,-0.0744 -0.161999,-0.12874 -0.342741,-0.12708 -0.16962,-3.8e-4 -0.339511,-0.002 -0.508822,0.005 -0.20281,0.01 -0.403117,0.0297 -0.601459,0.055 -0.351532,0.0429 -0.702353,0.0896 -1.039484,0.16047 -0.148491,0.0312 -0.294094,0.0628 -0.436529,0.10174 -0.0438,0.012 -0.172509,0.0508 -0.130542,0.037 0.300444,-0.0992 0.933364,-0.29723 0.533534,-0.17195 -0.141412,0.048 -0.290827,0.0993 -0.386471,0.17605 -0.03876,0.0608 -0.07613,0.12209 -0.122814,0.1812 -0.03946,0.0654 -0.0941,0.12733 -0.128593,0.19384 -0.03633,0.0767 -0.08671,0.15186 -0.09239,0.23191 -0.02009,0.0957 -0.05904,0.18994 -0.07062,0.28612 -0.01489,0.0935 -0.04288,0.18575 -0.05726,0.27917 -0.02434,0.0811 -0.06629,0.16003 -0.08654,0.24157 -0.05827,0.14494 -0.120246,0.2896 -0.19085,0.43286 -0.08991,0.19225 -0.184749,0.38384 -0.291618,0.57347 -0.09584,0.17934 -0.19821,0.35736 -0.298971,0.53586 0,0 -0.821308,0.21277 -0.821308,0.21277 z"
       inkscape:connector-curvature="0"
       inkscape:export-xdpi="215.06"
       inkscape:export-ydpi="215.06" />
    <path
       style="opacity:1;vector-effect:none;fill:#ff0000;fill-opacity:1;fill-rule:nonzero;stroke:none;stroke-width:0.29516792;stroke-linecap:butt;stroke-linejoin:miter;stroke-miterlimit:4;stroke-dasharray:none;stroke-dashoffset:0;stroke-opacity:1"
       id="path56"
       d="m 44.005238,180.78433 c 0.280585,-0.0156 0.539754,-0.0781 0.797955,-0.15046 0.05416,-0.0185 0.108297,-0.0371 0.162462,-0.0557 0.277101,-0.0947 0.977374,-0.35574 -0.26079,0.11467 -0.05993,0.0228 0.116657,-0.0494 0.173777,-0.0753 0.05597,-0.0255 0.110273,-0.0526 0.165416,-0.0788 0.125475,-0.0758 0.43964,-0.19886 0.493637,-0.3134 0.0056,-0.012 0.0017,-0.0252 0.0026,-0.0379 -0.01035,-0.0144 -0.01621,-0.0308 -0.0309,-0.0433 -0.110044,-0.0939 -0.418195,-0.15576 -0.579731,-0.18508 -0.328361,-0.0473 -0.662979,-0.062 -0.996134,-0.0369 -0.358789,0.0332 -0.63408,0.11479 -0.941874,0.24064 1.220966,-0.51717 0.589284,-0.23469 0.34547,-0.0851 -0.139369,0.0856 -0.26386,0.17569 -0.384192,0.27375 -0.207793,0.17931 -0.353821,0.38261 -0.440973,0.60305 -0.06325,0.18333 -0.07929,0.36807 -0.02223,0.55239 0.03881,0.14369 0.131039,0.27019 0.256014,0.3865 0.123122,0.0968 0.266235,0.17715 0.430753,0.23768 0.136955,0.035 0.302122,0.10907 0.451745,0.10825 0.03097,-1.8e-4 0.06116,-0.006 0.09174,-0.0102 0.03315,-0.007 0.06729,-0.0121 0.09945,-0.0211 0.03621,-0.0101 0.138807,-0.0493 0.10503,-0.0357 -1.350414,0.54011 -0.791252,0.31753 -0.559193,0.21245 0.0448,-0.0203 0.08906,-0.0412 0.133177,-0.0621 0.04264,-0.0203 0.08472,-0.0411 0.127088,-0.0617 0.188315,-0.0944 0.3562,-0.20557 0.490737,-0.3365 0.254069,-0.27829 0.625022,-0.34396 1.078176,-0.52551 0.150767,0.0124 0.104439,0.12157 0.0459,0.18041 -0.07075,0.0611 -0.148641,0.11603 -0.199398,0.18666 -0.04421,0.0707 -0.04707,0.14195 -0.0054,0.21284 0.04585,0.055 0.115367,0.0936 0.204365,0.1087 0.164702,0.0194 0.333142,0.0178 0.499752,0.0186 0.08858,-0.004 0.173455,-0.0179 0.252164,-0.0467 0.02433,-0.009 0.09417,-0.0394 0.07018,-0.0301 -0.741495,0.28853 -0.961047,0.4095 -0.666862,0.25221 0.120179,-0.0719 0.23276,-0.14874 0.319172,-0.24111 0.197147,-0.23882 0.269647,-0.19103 0.894256,-0.41156 0.02571,-0.009 0.159181,0.0971 0.173972,0.1075 0.114131,0.0867 0.196073,0.19083 0.30331,0.281 0.05016,0.0148 0.107289,0.003 0.155513,-0.0122 0.02625,-0.008 0.09975,-0.0397 0.07463,-0.03 -0.740795,0.28684 -0.935074,0.39231 -0.620426,0.2288 0.112356,-0.0707 0.212246,-0.15251 0.288623,-0.2435 0.03066,-0.0366 0.01558,-0.0488 0.03297,-0.0294 1.541121,-0.4822 0.922119,-0.37832 0.719322,-0.18031 -0.07682,0.075 -0.132209,0.15972 -0.189699,0.24204 -0.139306,0.19712 -0.2356,0.40628 -0.347373,0.61104 -0.08456,0.15943 -0.21071,0.30473 -0.342894,0.44698 -0.08378,0.096 -0.198629,0.1726 -0.323559,0.24257 -0.367567,0.1868 -0.780758,0.32665 -1.177736,0.48102 -0.02163,0.006 -0.04323,0.0137 -0.06484,0.0206 0,0 0.736449,-0.40549 0.736449,-0.40549 v 0 c 0.0207,-0.007 0.04143,-0.0151 0.06214,-0.0227 0.313613,-0.11583 0.119937,-0.0449 -0.680027,0.27358 -0.02113,0.008 0.04151,-0.0176 0.0627,-0.0259 0.135536,-0.0531 -0.0081,0.008 0.12522,-0.0521 0.02044,-0.009 0.04125,-0.0181 0.06188,-0.027 0.123378,-0.0678 0.249827,-0.13202 0.33865,-0.22415 0.130623,-0.14111 0.269642,-0.27943 0.357211,-0.437 0.115152,-0.20494 0.209557,-0.4154 0.344226,-0.61495 0.302912,-0.46798 0.224587,-0.34128 1.155237,-0.63788 0.0047,0.0106 0.01597,0.0206 0.01433,0.0316 -0.01277,0.086 -0.22777,0.24277 -0.305011,0.30944 -0.333501,0.21433 -0.118189,0.0845 -0.985354,0.41413 -0.0998,0.038 -0.221856,0.0245 -0.303342,-0.026 -0.09881,-0.0909 -0.178665,-0.19223 -0.294168,-0.27433 -0.0082,-0.006 -0.07125,-0.0499 -0.09714,-0.0514 -0.0078,-4.9e-4 -0.02042,0.0157 -0.01372,0.013 1.336684,-0.54288 0.88988,-0.45944 0.705517,-0.26193 -0.07409,0.10239 -0.184323,0.18629 -0.30957,0.2609 -0.294481,0.21203 -0.06159,0.0527 -0.937554,0.39838 -0.104802,0.0414 -0.23145,0.0487 -0.349144,0.0507 -0.174311,-0.002 -0.353587,9.3e-4 -0.521916,-0.0342 -0.105017,-0.0328 -0.19099,-0.0844 -0.247003,-0.15474 -0.04975,-0.0841 -0.06684,-0.16984 -0.02638,-0.25811 0.03764,-0.0777 0.09725,-0.14692 0.189774,-0.1999 0.01465,-0.014 0.0545,-0.0573 0.08324,-0.062 0.01223,-0.002 0.02664,0.0119 0.02105,0.0192 -0.0039,0.006 -0.01344,0.007 -0.02009,0.0109 1.691186,-0.68472 0.799528,-0.36168 0.603029,-0.22299 -0.01448,0.0102 -0.07093,0.07 -0.08151,0.081 -0.131846,0.13904 -0.295803,0.25915 -0.48759,0.36041 -0.124843,0.0619 -0.250352,0.13165 -0.383143,0.18519 -0.362251,0.1461 -0.716615,0.35601 -1.14501,0.40155 -0.03535,-9.3e-4 -0.071,4.9e-4 -0.106012,-0.003 -0.164773,-0.0162 -0.318635,-0.08 -0.468567,-0.12483 -0.170872,-0.0696 -0.322931,-0.15651 -0.451539,-0.26127 -0.130461,-0.12432 -0.229021,-0.25913 -0.271293,-0.41126 -0.06387,-0.19348 -0.0569,-0.38647 0.006,-0.58052 0.08223,-0.23361 0.217321,-0.43597 0.427704,-0.62926 0.462023,-0.40553 0.918122,-0.58142 1.613293,-0.84123 0.302286,-0.11465 0.621283,-0.19735 0.967913,-0.21967 0.340844,-0.016 0.682794,9.3e-4 1.015886,0.0556 0.206464,0.0419 0.492646,0.10157 0.629204,0.22624 0.02141,0.0195 0.03336,0.0433 0.05006,0.0649 0.0051,0.022 0.01772,0.0436 0.01547,0.0657 -0.0148,0.14731 -0.349418,0.26404 -0.487302,0.3514 -0.572163,0.28386 -1.193849,0.52007 -1.832594,0.72489 -0.266054,0.0713 -0.53756,0.12248 -0.822985,0.14098 0,0 0.756563,-0.38664 0.756563,-0.38664 z"
       inkscape:connector-curvature="0"
       inkscape:export-xdpi="215.06"
       inkscape:export-ydpi="215.06" />
    <path
       style="opacity:1;vector-effect:none;fill:#ff0000;fill-opacity:1;fill-rule:nonzero;stroke:none;stroke-width:0.29516792;stroke-linecap:butt;stroke-linejoin:miter;stroke-miterlimit:4;stroke-dasharray:none;stroke-dashoffset:0;stroke-opacity:1"
       id="path58"
       d="m 48.473472,181.59587 c -0.05226,0.36532 -0.116845,0.72977 -0.205848,1.09172 -0.05877,0.26455 -0.149175,0.52487 -0.255943,0.78195 -0.0099,0.0235 -0.01975,0.0471 -0.02963,0.0707 0,0 -0.847735,0.27605 -0.847735,0.27605 v 0 c 0.01116,-0.0238 0.02226,-0.0476 0.0334,-0.0714 0.11538,-0.25636 0.215991,-0.51607 0.278849,-0.78132 0.09351,-0.35623 0.166885,-0.71654 0.184645,-1.07863 0,0 0.842266,-0.28903 0.842266,-0.28903 z"
       inkscape:connector-curvature="0"
       inkscape:export-xdpi="215.06"
       inkscape:export-ydpi="215.06" />
    <path
       style="opacity:1;vector-effect:none;fill:#ff0000;fill-opacity:1;fill-rule:nonzero;stroke:none;stroke-width:0.29516792;stroke-linecap:butt;stroke-linejoin:miter;stroke-miterlimit:4;stroke-dasharray:none;stroke-dashoffset:0;stroke-opacity:1"
       id="path60"
       d="m 48.813097,181.4858 c 0.06406,0.15819 0.117128,0.31832 0.148647,0.48114 0.01263,0.10319 0.03218,0.20738 0.02535,0.31111 -0.0732,0.24072 -0.729671,0.32935 -0.884891,0.38517 -0.01718,0.006 -0.03893,-0.002 -0.05815,1.6e-4 -0.03723,0.004 -0.07277,0.0128 -0.109439,0.0184 -0.122706,0.0136 -0.246427,0.0311 -0.363353,0.0607 -0.06238,0.0159 -0.12737,0.025 -0.192434,0.0336 0,0 0.750855,-0.39366 0.750855,-0.39366 v 0 c 0.06315,-0.0113 0.125838,-0.0235 0.187775,-0.0377 0.122263,-0.0219 0.244795,-0.0418 0.369252,-0.0567 0.03787,-0.006 0.0764,-0.009 0.114198,-0.0146 0.01683,-0.003 0.06432,-0.0162 0.04955,-0.0101 -0.527515,0.21788 -1.069946,0.37434 -0.714219,0.30079 0.04522,-0.0867 -0.01022,-0.20629 -0.0048,-0.29674 -0.02678,-0.1588 -0.07021,-0.31646 -0.14394,-0.46837 0,0 0.825681,-0.31324 0.825681,-0.31324 z"
       inkscape:connector-curvature="0"
       inkscape:export-xdpi="215.06"
       inkscape:export-ydpi="215.06" />
    <path
       style="opacity:1;vector-effect:none;fill:#ff0000;fill-opacity:1;fill-rule:nonzero;stroke:none;stroke-width:0.29516792;stroke-linecap:butt;stroke-linejoin:miter;stroke-miterlimit:4;stroke-dasharray:none;stroke-dashoffset:0;stroke-opacity:1"
       id="path62"
       d="m 50.477707,180.0251 c -0.174439,0.17751 -0.285149,0.37732 -0.385071,0.5788 -0.09115,0.19127 -0.134658,0.39131 -0.174947,0.59014 -0.03261,0.16631 -0.0398,0.3342 -0.04291,0.50179 -0.0022,0.13867 -7.12e-4,0.27736 7.11e-4,0.41603 -0.0011,0.0904 0.04957,0.15105 0.162148,0.19355 0.05558,-1.4e-4 0.02781,0.005 0.08067,-0.021 -0.250979,0.0959 -0.500525,0.19356 -0.75294,0.28763 -0.02681,0.01 0.0512,-0.0229 0.07582,-0.0353 0.07433,-0.0374 0.08929,-0.0491 0.158669,-0.0924 0.07218,-0.0474 0.144213,-0.0948 0.214331,-0.14372 0,0 0.867052,-0.24951 0.867052,-0.24951 v 0 c -0.06766,0.0519 -0.139423,0.10019 -0.214697,0.14689 -0.06518,0.0469 -0.139676,0.10636 -0.222349,0.13955 -0.178306,0.0716 -0.651952,0.43319 -1.00154,0.32026 -0.125932,-0.0618 -0.200198,-0.14247 -0.205273,-0.25158 7.12e-4,-0.13945 3.56e-4,-0.27888 0.0026,-0.41831 0.004,-0.17018 0.0075,-0.34079 0.03989,-0.50979 0.04179,-0.20238 0.08307,-0.40643 0.17094,-0.60214 0.09952,-0.20348 0.204351,-0.40559 0.364864,-0.59096 0,0 0.862301,-0.2599 0.862301,-0.2599 z"
       inkscape:connector-curvature="0"
       inkscape:export-xdpi="215.06"
       inkscape:export-ydpi="215.06" />
    <path
       style="opacity:1;vector-effect:none;fill:#ff0000;fill-opacity:1;fill-rule:nonzero;stroke:none;stroke-width:0.29516792;stroke-linecap:butt;stroke-linejoin:miter;stroke-miterlimit:4;stroke-dasharray:none;stroke-dashoffset:0;stroke-opacity:1"
       id="path64"
       d="m 49.516593,180.68051 c 0.187138,-0.0398 0.376059,-0.0753 0.56951,-0.097 0.127652,-0.009 0.258443,-0.0195 0.385249,-0.003 0.08237,0.0126 0.165797,0.0207 0.249566,0.0271 0,0 -0.770536,0.37547 -0.770536,0.37547 v 0 c -0.08321,-0.008 -0.165854,-0.0186 -0.249134,-0.0265 -0.122974,-0.003 -0.246344,0.003 -0.367562,0.0177 -0.190532,0.0257 -0.377923,0.0608 -0.561474,0.10456 0,0 0.744381,-0.39837 0.744381,-0.39837 z"
       inkscape:connector-curvature="0"
       inkscape:export-xdpi="215.06"
       inkscape:export-ydpi="215.06" />
    <path
       style="opacity:1;vector-effect:none;fill:#ff0000;fill-opacity:1;fill-rule:nonzero;stroke:none;stroke-width:0.29516792;stroke-linecap:butt;stroke-linejoin:miter;stroke-miterlimit:4;stroke-dasharray:none;stroke-dashoffset:0;stroke-opacity:1"
       id="path72"
       d="m 43.773322,183.33348 c -0.12397,0.20082 -0.250869,0.4008 -0.388898,0.59725 -0.110837,0.15589 -0.20794,0.31609 -0.31378,0.47352 -0.108283,0.14185 -0.214064,0.28402 -0.303033,0.4322 -0.06492,0.11058 -0.123257,0.22285 -0.184493,0.33442 0,0 -0.854968,0.27504 -0.854968,0.27504 v 0 c 0.0562,-0.11445 0.129427,-0.2249 0.189578,-0.33847 0.08305,-0.15074 0.187168,-0.29478 0.299392,-0.43619 0.114009,-0.15611 0.204896,-0.31983 0.319228,-0.47599 0.141593,-0.19198 0.268217,-0.38923 0.382642,-0.58961 0,0 0.854332,-0.27217 0.854332,-0.27217 z"
       inkscape:connector-curvature="0"
       inkscape:export-xdpi="215.06"
       inkscape:export-ydpi="215.06" />
    <path
       style="opacity:1;vector-effect:none;fill:#ff0000;fill-opacity:1;fill-rule:nonzero;stroke:none;stroke-width:0.29516792;stroke-linecap:butt;stroke-linejoin:miter;stroke-miterlimit:4;stroke-dasharray:none;stroke-dashoffset:0;stroke-opacity:1"
       id="path74"
       d="m 43.615068,183.4996 c 0.170104,-0.0516 0.321169,-0.12446 0.499616,-0.16293 0.139232,-0.0162 0.230683,0.0242 0.305972,0.10161 0.05992,0.0724 0.106751,0.15067 0.14884,0.22889 0.03944,0.0746 0.08531,0.1474 0.125784,0.22172 0.03777,0.0795 0.0514,0.16318 0.04824,0.24645 -0.009,0.0742 -0.0494,0.13949 -0.131107,0.18822 -0.45834,0.21701 -0.69223,0.35797 -1.157746,0.37682 -0.128015,0.004 -0.256189,0.003 -0.38428,0.003 -0.117397,0.007 -0.228621,-0.0162 -0.342335,-0.0319 -0.102073,-0.0123 -0.199238,-0.0388 -0.294576,-0.0662 0,0 0.786042,-0.36197 0.786042,-0.36197 v 0 c 0.09175,0.0256 0.187637,0.0438 0.285049,0.0559 0.10913,0.0159 0.217165,0.0281 0.329449,0.0221 0.12647,10e-6 0.253223,7.3e-4 0.3793,-0.007 0.37667,-0.0319 0.906527,-0.30309 -0.479788,0.25031 0.09047,-0.0385 0.142987,-0.0599 0.163684,-0.13865 0.02042,-0.0728 -0.0022,-0.14951 -0.02842,-0.2205 -0.03875,-0.0748 -0.08553,-0.1476 -0.125811,-0.22207 -0.03729,-0.0734 -0.08117,-0.14684 -0.137307,-0.21421 -0.06045,-0.0582 -0.140781,-0.0559 -0.233662,-0.0321 -0.170026,0.0486 -0.325143,0.11783 -0.493491,0.16921 0,0 0.736546,-0.40585 0.736546,-0.40585 z"
       inkscape:connector-curvature="0"
       inkscape:export-xdpi="215.06"
       inkscape:export-ydpi="215.06" />
    <path
       style="opacity:1;vector-effect:none;fill:#ff0000;fill-opacity:1;fill-rule:nonzero;stroke:none;stroke-width:0.29516792;stroke-linecap:butt;stroke-linejoin:miter;stroke-miterlimit:4;stroke-dasharray:none;stroke-dashoffset:0;stroke-opacity:1"
       id="path92"
       d="m 45.352786,184.28971 c -0.117947,0.086 -0.194594,0.1771 -0.169489,0.29649 0.02878,0.0658 0.112571,0.0935 0.193622,0.12363 0.116697,0.0338 0.227383,0.0762 0.347207,0.10479 0.08823,0.0311 0.172604,0.0731 0.2753,0.0601 0.01672,-0.002 0.03339,-0.004 0.05012,-0.006 0.05381,-0.006 0.05475,-0.002 0.101603,-0.0201 0.01573,-0.006 0.06032,-0.0275 0.04456,-0.0214 -0.739504,0.28707 -0.994671,0.41805 -0.709523,0.27385 0.07718,-0.0493 0.118311,-0.11542 0.125475,-0.18695 -0.01884,-0.0845 -0.118848,-0.14205 -0.2124,-0.1913 -0.0907,-0.0581 -0.200155,-0.0998 -0.316813,-0.1274 -0.11776,-0.0226 -0.240698,-0.0239 -0.362048,-0.0255 0,0 0.765376,-0.38045 0.765376,-0.38045 v 0 c 0.128902,0.004 0.258957,0.0108 0.380451,0.0435 0.121013,0.0361 0.234689,0.0819 0.331243,0.14452 0.113001,0.0651 0.220644,0.13677 0.255108,0.23929 0.01223,0.0851 -0.02557,0.16585 -0.09307,0.23738 -0.273494,0.21962 -0.700334,0.39382 -1.126311,0.40228 -0.105877,-0.013 -0.195872,-0.047 -0.291737,-0.0792 -0.120811,-0.0338 -0.23818,-0.0732 -0.355973,-0.11175 -0.105515,-0.0404 -0.195354,-0.0932 -0.235506,-0.17452 -0.03969,-0.14047 -0.0015,-0.23737 0.134466,-0.34823 0,0 0.868334,-0.25316 0.868334,-0.25316 z"
       inkscape:connector-curvature="0"
       inkscape:export-xdpi="215.06"
       inkscape:export-ydpi="215.06" />
    <path
       style="opacity:1;vector-effect:none;fill:#ff0000;fill-opacity:1;fill-rule:nonzero;stroke:none;stroke-width:0.29516792;stroke-linecap:butt;stroke-linejoin:miter;stroke-miterlimit:4;stroke-dasharray:none;stroke-dashoffset:0;stroke-opacity:1"
       id="path94"
       d="m 45.976605,184.48619 c 0.08873,0.11944 0.169404,0.2463 0.303602,0.34534 0.105178,0.0632 0.233824,0.0822 0.368257,0.0944 0.14139,0.0223 0.259563,-0.0185 0.390711,-0.0463 0.03901,-0.0169 0.08547,-0.0219 0.126362,-0.0357 0.01878,-0.006 0.07139,-0.03 0.05321,-0.0229 -1.6575,0.6506 -0.905351,0.39762 -0.693306,0.26559 0,0 0.876423,-0.2462 0.876423,-0.2462 v 0 c -0.02362,0.0144 -0.03786,0.0364 -0.06493,0.0476 -0.35035,0.14511 -0.663707,0.30368 -1.043843,0.38921 -0.13848,0.0298 -0.271918,0.0452 -0.416316,0.0217 -0.150508,-0.0208 -0.292837,-0.0538 -0.402728,-0.13171 -0.132935,-0.10864 -0.217994,-0.23914 -0.318375,-0.36235 0,0 0.820926,-0.31859 0.820926,-0.31859 z"
       inkscape:connector-curvature="0"
       inkscape:export-xdpi="215.06"
       inkscape:export-ydpi="215.06" />
    <path
       style="opacity:1;vector-effect:none;fill:#ff0000;fill-opacity:1;fill-rule:nonzero;stroke:none;stroke-width:0.29516792;stroke-linecap:butt;stroke-linejoin:miter;stroke-miterlimit:4;stroke-dasharray:none;stroke-dashoffset:0;stroke-opacity:1"
       id="path96"
       d="m 47.646958,184.42854 c 1.392355,-0.53929 0.700787,-0.32164 0.464397,-0.13838 -0.05477,0.0425 -0.06124,0.0539 -0.103082,0.1006 -0.05813,0.0862 -0.09507,0.11611 -0.0085,0.19374 0.09557,0.0674 0.218511,0.11591 0.331314,0.16944 0.102893,0.0536 0.137571,0.13204 0.156504,0.21602 0.01169,0.0814 -0.03811,0.14723 -0.131106,0.19452 -0.475377,0.22462 -0.688833,0.35076 -1.156219,0.36733 -0.106348,0.003 -0.212798,0.002 -0.319201,0.002 0,0 0.763481,-0.38218 0.763481,-0.38218 v 0 c 0.10503,-2.5e-4 0.210241,-2.5e-4 0.314997,-0.006 0.382133,-0.0287 0.892082,-0.28026 -0.484287,0.25556 0.08003,-0.0307 0.168194,-0.0556 0.176399,-0.12785 -0.01102,-0.0683 -0.02909,-0.12905 -0.117181,-0.17009 -0.11815,-0.0595 -0.250509,-0.10911 -0.34652,-0.18629 -0.104466,-0.096 -0.10745,-0.15036 -0.03807,-0.2614 0.238318,-0.33076 0.79589,-0.46258 1.233601,-0.63267 0,0 -0.736548,0.40586 -0.736548,0.40586 z"
       inkscape:connector-curvature="0"
       inkscape:export-xdpi="215.06"
       inkscape:export-ydpi="215.06" />
    <path
       style="opacity:1;vector-effect:none;fill:#ff0000;fill-opacity:1;fill-rule:nonzero;stroke:none;stroke-width:0.29516792;stroke-linecap:butt;stroke-linejoin:miter;stroke-miterlimit:4;stroke-dasharray:none;stroke-dashoffset:0;stroke-opacity:1"
       id="path98"
       d="m 49.280405,184.40373 c -0.212178,0.012 -0.424628,0.0373 -0.610782,0.11092 1.291087,-0.51321 0.723053,-0.35643 0.521027,-0.12293 -0.04035,0.0602 -0.0654,0.12675 -0.0407,0.19184 0.05011,0.075 0.137681,0.10027 0.248522,0.11784 0.133513,0.0289 0.246042,0.0341 0.345969,0.1075 0.07178,0.07 0.08444,0.14905 0.05946,0.23088 -0.04315,0.0771 -0.138367,0.13024 -0.227998,0.18172 -0.319499,0.17541 -0.671294,0.36462 -1.068762,0.42934 0,0 0.746026,-0.4002 0.746026,-0.4002 v 0 c 0.312262,-0.10166 0.04914,-0.017 -0.721569,0.29181 -0.135268,0.0542 0.313386,-0.12742 0.169866,-0.0742 0.07745,-0.0544 0.174108,-0.0938 0.244613,-0.1534 0.04738,-0.0521 0.04292,-0.11429 -0.0077,-0.16522 -0.0876,-0.0525 -0.214349,-0.0522 -0.31908,-0.0813 -0.13319,-0.0323 -0.236629,-0.081 -0.297994,-0.17166 -0.04085,-0.0799 -0.02895,-0.156 0.0089,-0.23638 0.17813,-0.29917 0.696362,-0.40835 1.073777,-0.5495 0.201868,-0.057 0.417013,-0.0793 0.633211,-0.0947 0,0 -0.756788,0.38765 -0.756788,0.38765 z"
       inkscape:connector-curvature="0"
       inkscape:export-xdpi="215.06"
       inkscape:export-ydpi="215.06" />
    <path
       style="opacity:1;vector-effect:none;fill:#d7d7f4;fill-opacity:1;fill-rule:nonzero;stroke:none;stroke-width:0.01863529;stroke-linecap:butt;stroke-linejoin:miter;stroke-miterlimit:4;stroke-dasharray:none;stroke-dashoffset:0;stroke-opacity:1"
       d="m 41.295972,185.8377 c -0.02148,-0.2318 0.0042,-3.59195 0.03066,-4.01005 0.01238,-0.19566 0.02297,-0.77507 0.02354,-1.28761 7.11e-4,-0.51253 0.0089,-0.93187 0.01849,-0.93187 0.0096,0 0.186175,-0.0244 0.392386,-0.054 0.206208,-0.0297 0.584824,-0.0747 0.841365,-0.10011 0.625776,-0.0619 2.308929,-0.19229 3.003609,-0.2328 0.308726,-0.0181 0.798759,-0.0535 1.088961,-0.079 0.609253,-0.0534 1.686845,-0.0927 1.701661,-0.0621 0.0047,0.01 0.02038,0.0125 0.03475,0.006 0.03361,-0.015 0.864304,-0.0389 1.42945,-0.041 l 0.437833,-0.002 0.314339,0.0589 c 0.420805,0.0788 0.474371,0.0959 0.539132,0.17206 0.217496,0.25571 0.18747,0.83315 -0.100983,1.94215 -0.240003,0.92272 -0.306319,1.21396 -0.549388,2.41282 -0.136635,0.6739 -0.214057,1.10435 -0.247593,1.37654 -0.0079,0.0638 -0.02834,0.21345 -0.04551,0.33255 -0.01718,0.11909 -0.03795,0.27482 -0.04616,0.34605 l -0.01494,0.12952 -0.121574,-0.01 c -0.06686,-0.006 -0.381447,-0.0171 -0.699069,-0.026 -0.615273,-0.0172 -1.294885,-0.004 -2.137967,0.0419 -0.276713,0.015 -0.979024,0.0289 -1.908491,0.0377 -0.808863,0.007 -1.511079,0.0174 -1.560473,0.0218 -0.293634,0.0255 -0.926906,0.0544 -1.189244,0.0544 -0.168197,0 -0.444302,0.01 -0.61357,0.022 -0.169264,0.0121 -0.374971,0.0261 -0.457122,0.0312 l -0.149371,0.009 z m 7.424152,-0.22851 c 0.171576,-0.0443 0.392998,-0.13592 0.645492,-0.26712 0.39685,-0.2062 0.450337,-0.25066 0.450337,-0.37438 0,-0.0889 -0.04479,-0.1644 -0.116887,-0.19694 -0.03062,-0.0138 -0.141468,-0.0431 -0.246348,-0.0652 -0.11024,-0.0231 -0.210493,-0.0547 -0.237628,-0.0747 -0.100936,-0.0745 -0.08395,-0.18949 0.03226,-0.21841 0.112758,-0.0281 0.803977,-0.38759 0.757567,-0.39404 -0.05946,-0.008 -0.356802,0.0276 -0.488767,0.059 -0.19438,0.0462 -0.736076,0.24037 -0.883398,0.3167 -0.141351,0.0732 -0.321131,0.23452 -0.321131,0.28808 0,0.0156 -0.0083,0.0318 -0.01835,0.0361 -0.0245,0.0105 -0.262533,-0.11923 -0.309481,-0.16859 -0.06168,-0.0648 0.0064,-0.16089 0.213296,-0.30084 0.122911,-0.0831 0.14867,-0.10644 0.09207,-0.0832 -0.297208,0.12167 -0.406811,0.16336 -0.414873,0.15781 -0.0051,-0.004 0.105951,-0.0688 0.246732,-0.14514 0.140778,-0.0763 0.256413,-0.14392 0.256957,-0.15022 0.0014,-0.0179 -0.551028,0.18472 -0.754366,0.27659 -0.3234,0.14613 -0.539569,0.34801 -0.520457,0.48606 0.0084,0.0608 0.0078,0.0613 -0.104415,0.09 -0.06209,0.0158 -0.144829,0.0336 -0.18387,0.0394 -0.07449,0.0111 -0.312106,-0.0128 -0.398916,-0.04 -0.05051,-0.0158 -0.05057,-0.0163 -0.01031,-0.0706 0.112232,-0.15165 0.06422,-0.27095 -0.16707,-0.41513 -0.184503,-0.11502 -0.408262,-0.19021 -0.602876,-0.2026 l -0.149975,-0.01 -0.152087,0.0747 c -0.08901,0.0437 -0.292204,0.11574 -0.48993,0.17359 -0.185812,0.0543 -0.356994,0.11041 -0.380398,0.12457 -0.07527,0.0456 -0.132214,0.15657 -0.130212,0.25387 0.0021,0.10736 0.05432,0.17497 0.178358,0.23142 0.08213,0.0374 0.600941,0.20175 0.690448,0.21874 0.02468,0.005 0.117661,-2.2e-4 0.206584,-0.0109 0.136988,-0.0165 0.171196,-0.016 0.223972,0.003 0.09499,0.0343 0.276051,0.0639 0.39222,0.0641 0.209518,4.9e-4 0.570043,-0.10222 0.994174,-0.28292 l 0.200347,-0.0854 0.08032,0.0446 c 0.04417,0.0245 0.124985,0.0674 0.179589,0.0953 0.0546,0.0279 0.102626,0.0577 0.106722,0.0663 0.0041,0.008 -0.153954,0.0956 -0.351218,0.19333 -0.197267,0.0978 -0.35896,0.18383 -0.359319,0.19131 -0.0011,0.0191 0.474318,-0.004 0.620348,-0.0304 0.168767,-0.0303 0.358939,-0.0994 0.660518,-0.24001 0.171722,-0.0801 0.273448,-0.13852 0.299811,-0.17224 l 0.0399,-0.051 0.193309,0.0434 c 0.233883,0.0525 0.273579,0.0744 0.273579,0.15148 0,0.0504 -0.01554,0.0677 -0.117875,0.13144 -0.06484,0.0404 -0.157283,0.0932 -0.205447,0.11743 -0.121133,0.0609 -0.09072,0.0551 0.09892,-0.019 0.08873,-0.0346 0.166206,-0.0596 0.172181,-0.0555 0.006,0.004 -0.08029,0.0551 -0.191691,0.11324 -0.267722,0.13979 -0.267533,0.15186 0.0014,0.0825 z m -6.346546,-0.36271 c 0.181691,-0.0585 0.218478,-0.0767 0.243333,-0.11988 0.01611,-0.028 0.07675,-0.13444 0.134771,-0.23652 l 0.105493,-0.1856 0.375283,-2.4e-4 c 0.427872,-2.5e-4 0.532998,-0.0156 0.813114,-0.11796 0.210198,-0.0767 0.57701,-0.25521 0.633862,-0.30828 0.116734,-0.10897 0.09183,-0.28017 -0.08503,-0.58465 -0.151706,-0.26118 -0.221937,-0.33448 -0.341779,-0.35671 -0.103575,-0.0192 -0.163966,-0.008 -0.381063,0.0667 -0.08953,0.031 -0.162785,0.0526 -0.162785,0.0478 0,-0.005 0.0159,-0.0299 0.03535,-0.0557 0.01942,-0.0259 0.02987,-0.0508 0.02319,-0.0555 -0.0067,-0.005 -0.202204,0.0524 -0.434501,0.12663 l -0.422359,0.13499 -0.06478,0.11068 c -0.06624,0.11318 -0.303043,0.4635 -0.675969,1.00003 -0.207137,0.29801 -0.436767,0.67579 -0.436767,0.71856 0,0.0158 0.06032,0.003 0.213303,-0.0467 0.117317,-0.0378 0.309623,-0.0997 0.427349,-0.13765 z m 5.20096,-1.56555 0.419244,-0.13464 0.06893,-0.17945 c 0.07039,-0.18327 0.157461,-0.44999 0.208925,-0.64002 l 0.02873,-0.10618 0.136077,-0.0351 c 0.291115,-0.0751 0.481771,-0.16898 0.54107,-0.26654 0.04901,-0.0806 -0.0028,-0.41983 -0.10807,-0.7079 -0.0249,-0.0681 -0.04846,-0.12597 -0.05242,-0.12871 -0.0039,-0.003 -0.07813,0.0227 -0.164837,0.0566 -0.08671,0.0339 -0.162365,0.0583 -0.168134,0.0543 -0.0058,-0.004 -0.173105,0.0489 -0.371866,0.11743 -0.198765,0.0685 -0.367072,0.12465 -0.374021,0.12465 -0.0069,0 0.0117,-0.0226 0.04145,-0.0503 0.02973,-0.0277 0.06957,-0.0724 0.0885,-0.0995 0.02863,-0.0409 0.02927,-0.0506 0.0038,-0.0573 -0.03608,-0.01 -0.732334,0.19277 -0.825475,0.23986 -0.03517,0.0178 -0.07136,0.0264 -0.08043,0.0192 -0.0091,-0.007 -0.06518,-0.0568 -0.124685,-0.10992 -0.105411,-0.0942 -0.10715,-0.0975 -0.06764,-0.1276 0.0223,-0.0169 0.03012,-0.0308 0.01736,-0.0308 -0.01277,0 -0.03546,0.0102 -0.05045,0.0227 -0.0239,0.0198 -0.0335,0.0198 -0.07819,-2.4e-4 -0.04774,-0.0216 -0.07258,-0.0157 -0.39648,0.0921 -0.355542,0.11847 -0.420261,0.15201 -0.544797,0.28227 l -0.07175,0.0751 -0.206048,-0.002 c -0.241587,-0.003 -0.325044,-0.0275 -0.393283,-0.11813 -0.06915,-0.0918 -0.04036,-0.1732 0.109418,-0.30929 0.0677,-0.0615 0.128929,-0.13093 0.136059,-0.15428 0.0079,-0.0257 0.04276,-0.0552 0.08877,-0.0747 0.09801,-0.0418 0.09921,-0.0578 0.0014,-0.0181 -0.07242,0.0294 -0.07586,0.0294 -0.125454,0.002 -0.0505,-0.0281 -0.0537,-0.0275 -0.335303,0.0745 -0.508295,0.18408 -0.621355,0.24271 -0.802352,0.41609 -0.05414,0.0519 -0.180381,0.14822 -0.280528,0.21413 -0.175243,0.11534 -0.185183,0.11945 -0.264308,0.10936 -0.112847,-0.0143 -0.413632,-0.10683 -0.535587,-0.16463 -0.405324,-0.1921 -0.586399,-0.46718 -0.562515,-0.85455 0.02404,-0.38974 0.263775,-0.72278 0.756262,-1.05054 l 0.240896,-0.16032 0.200212,-0.035 c 0.591243,-0.10344 1.501755,-0.0189 1.788752,0.16606 0.07991,0.0515 0.07807,0.0975 -0.0066,0.16387 -0.09076,0.0712 -0.453225,0.25874 -0.594035,0.30735 -0.177064,0.0611 -0.495588,0.13382 -0.686042,0.15659 -0.191128,0.0229 -0.170971,0.0148 -0.634246,0.25252 -0.344803,0.17692 -0.344959,0.18378 -0.0032,0.13514 0.268401,-0.0382 0.49163,-0.0951 0.85187,-0.21711 0.924794,-0.31325 1.892338,-0.76146 1.98832,-0.92109 0.05695,-0.0947 -0.0417,-0.21988 -0.23469,-0.29778 -0.399745,-0.16138 -1.286581,-0.22863 -1.791245,-0.13584 -0.350596,0.0644 -0.891143,0.25224 -1.416644,0.49212 -0.852823,0.38927 -1.318666,0.90753 -1.318666,1.46705 0,0.20497 0.04544,0.3538 0.15739,0.51546 0.180271,0.26034 0.593107,0.48305 1.038351,0.56017 0.20714,0.0359 0.509415,-0.0456 1.038372,-0.27972 0.152945,-0.0677 0.282915,-0.12311 0.288829,-0.12311 0.0059,0 0.02251,0.0245 0.03687,0.0545 0.06984,0.14577 0.226522,0.20798 0.559933,0.22235 0.285597,0.0123 0.465779,-2.4e-4 0.579095,-0.0405 0.04646,-0.0165 0.23186,-0.0833 0.41201,-0.14865 0.180151,-0.0653 0.333856,-0.11868 0.34157,-0.11868 0.0077,0 0.05583,0.0424 0.106929,0.0942 0.112373,0.11399 0.210152,0.15024 0.340986,0.12645 0.04631,-0.008 0.0842,-0.0142 0.0842,-0.0128 0,0.0217 -0.291926,0.53862 -0.345527,0.61187 -0.181314,0.24779 -0.361023,0.40578 -0.604825,0.53175 -0.119597,0.0618 -0.119462,0.0743 2.49e-4,0.0233 0.15346,-0.0654 0.09353,-0.015 -0.12118,0.10187 -0.120866,0.0657 -0.223644,0.1269 -0.228395,0.13585 -0.0159,0.03 0.883539,-0.31888 1.120054,-0.43442 0.214178,-0.10463 0.324076,-0.17916 0.434633,-0.29476 0.17377,-0.18169 0.298345,-0.35872 0.442022,-0.62813 0.149424,-0.28018 0.278487,-0.4872 0.303741,-0.4872 0.02027,0 -0.0054,0.22924 -0.0581,0.51814 -0.04165,0.22853 -0.04339,0.23267 -0.116393,0.2763 l -0.07411,0.0443 0.06324,-0.007 c 0.06265,-0.007 0.06311,-0.007 0.04881,0.0562 -0.04568,0.20197 -0.156725,0.54479 -0.242675,0.7492 -0.05432,0.12917 -0.09261,0.23497 -0.08511,0.23509 0.0075,1.3e-4 0.20231,-0.0604 0.432897,-0.13443 z m 2.112031,-1.05952 c 0.07734,-0.0283 0.2461,-0.10712 0.375028,-0.17514 0.253276,-0.13363 0.644752,-0.38323 0.612628,-0.3906 -0.01085,-0.003 -0.175581,0.0404 -0.366037,0.0952 -0.304719,0.0878 -0.350333,0.097 -0.379968,0.0771 -0.05091,-0.0342 -0.04584,-0.82619 0.0069,-1.07217 0.02084,-0.0973 0.047,-0.18084 0.05811,-0.1856 0.100307,-0.0431 0.720375,-0.35102 0.720588,-0.35788 3.56e-4,-0.0158 -0.281328,-0.0452 -0.434522,-0.0452 -0.08194,0 -0.148968,-0.004 -0.148968,-0.009 0,-0.031 0.194105,-0.34153 0.267619,-0.42804 0.04879,-0.0574 0.07674,-0.10386 0.0621,-0.10319 -0.01465,7.4e-4 -0.21353,0.0582 -0.44199,0.1279 l -0.415375,0.12667 -0.08501,0.11571 c -0.04676,0.0636 -0.118661,0.17835 -0.159794,0.25492 -0.07319,0.13622 -0.07857,0.14128 -0.251786,0.23702 -0.09735,0.0538 -0.212364,0.11858 -0.255584,0.14394 -0.08771,0.0515 -0.08603,0.0515 0.176238,2.5e-4 l 0.165015,-0.0322 -0.01373,0.0377 c -0.03556,0.0976 -0.105602,0.41618 -0.125446,0.57059 -0.01213,0.0944 -0.02216,0.32326 -0.02226,0.50855 -1.57e-4,0.26982 0.0068,0.34835 0.03467,0.39441 0.03892,0.0642 0.132581,0.13859 0.200884,0.15959 0.08437,0.0259 0.273505,0.003 0.420709,-0.0507 z m -1.67668,-1.02996 c -0.0075,-0.006 -0.03112,0.003 -0.05244,0.0185 -0.03705,0.0268 -0.03645,0.0271 0.01369,0.009 0.02884,-0.0102 0.04628,-0.0228 0.03876,-0.028 z"
       id="path110"
       inkscape:connector-curvature="0"
       inkscape:export-xdpi="215.06"
       inkscape:export-ydpi="215.06" />
    <path
       style="opacity:1;vector-effect:none;fill:#d7d7f4;fill-opacity:1;fill-rule:nonzero;stroke:none;stroke-width:0.01863529;stroke-linecap:butt;stroke-linejoin:miter;stroke-miterlimit:4;stroke-dasharray:none;stroke-dashoffset:0;stroke-opacity:1"
       d="m 42.92322,179.09913 c 1.56e-4,-0.005 0.02009,-0.0526 0.04431,-0.10582 0.07087,-0.15573 0.195574,-0.60101 0.282612,-1.00916 0.132716,-0.62233 0.143307,-0.68262 0.143815,-0.81894 0.0014,-0.40474 0.155303,-0.75921 0.441198,-1.01689 0.282349,-0.25448 0.872454,-0.60353 1.539202,-0.91045 0.33907,-0.15607 0.359814,-0.16317 0.56132,-0.19195 0.461088,-0.0658 1.238599,-0.0841 1.62377,-0.0382 0.50573,0.0604 1.704768,0.29656 1.970196,0.38806 0.257011,0.0886 0.512328,0.30931 0.702074,0.60689 0.151956,0.23831 0.152208,0.43003 0.0011,0.83685 -0.152152,0.40964 -0.332668,1.0594 -0.497381,1.79028 l -0.01135,0.0503 h -0.18983 c -0.104408,0 -0.189831,-0.006 -0.189831,-0.0136 0,-0.007 0.03094,-0.0823 0.06876,-0.16627 0.0775,-0.17211 0.181676,-0.46621 0.226657,-0.63991 0.04529,-0.17491 0.03828,-0.79427 -0.01156,-1.02081 -0.05143,-0.23379 -0.199326,-0.67653 -0.274237,-0.82098 -0.145779,-0.2811 -0.395466,-0.5324 -0.600597,-0.60449 -0.0862,-0.0303 -0.117818,-0.0318 -0.541749,-0.0245 -0.39334,0.006 -0.505511,0.0149 -0.888039,0.0642 -0.988029,0.12737 -1.373569,0.21615 -2.313897,0.53283 -0.432075,0.14551 -0.492711,0.18269 -0.632952,0.38806 -0.206304,0.3021 -0.228342,0.35845 -0.342064,0.87466 -0.07973,0.36191 -0.353181,0.99095 -0.685813,1.57761 -0.07717,0.13611 -0.141451,0.24852 -0.142841,0.24981 -0.0087,0.008 -0.283136,0.0296 -0.282901,0.0222 z"
       id="path112"
       inkscape:connector-curvature="0"
       inkscape:export-xdpi="215.06"
       inkscape:export-ydpi="215.06" />
    <path
       style="opacity:1;vector-effect:none;fill:#d7d7f4;fill-opacity:1;fill-rule:nonzero;stroke:none;stroke-width:0.01863529;stroke-linecap:butt;stroke-linejoin:miter;stroke-miterlimit:4;stroke-dasharray:none;stroke-dashoffset:0;stroke-opacity:1"
       d="m 43.416891,184.27683 c -0.09262,-0.0173 -0.181026,-0.032 -0.196464,-0.0327 -0.01543,-4.8e-4 -0.02806,-0.004 -0.02806,-0.006 0,-0.0122 0.319289,-0.47844 0.33541,-0.48978 0.0099,-0.007 0.03895,0.006 0.06448,0.028 0.04843,0.0424 0.256093,0.39626 0.283776,0.48356 l 0.01593,0.0503 -0.153342,-7.3e-4 c -0.08434,-5e-4 -0.229118,-0.015 -0.321736,-0.0324 z"
       id="path114"
       inkscape:connector-curvature="0"
       inkscape:export-xdpi="215.06"
       inkscape:export-ydpi="215.06" />
  </g>
</svg>
